{
    "asset" : {
        "generator" : "Khronos glTF Blender I/O v1.7.33",
        "version" : "2.0"
    },
    "scene" : 0,
    "scenes" : [
        {
            "name" : "Scene",
            "nodes" : [
                0
            ]
        },
        {
            "name" : "Scene.001"
        },
        {
            "name" : "Scene.002"
        }
    ],
    "nodes" : [
        {
            "mesh" : 0,
            "name" : "HOODIE -MARV.001",
            "rotation" : [
                0.7071068286895752,
                0,
                0,
                0.7071067094802856
            ],
            "scale" : [
                0.251596063375473,
                0.251596063375473,
                0.251596063375473
            ],
            "translation" : [
                5.494134426116943,
                13.95716667175293,
                65.26704406738281
            ]
        }
    ],
    "materials" : [
        {
            "doubleSided" : true,
            "name" : "Material",
            "pbrMetallicRoughness" : {
                "baseColorFactor" : [
                    0.447982519865036,
                    0.447982519865036,
                    0.447982519865036,
                    1
                ],
                "metallicFactor" : 0,
                "roughnessFactor" : 0.5
            }
        }
    ],
    "meshes" : [
        {
            "name" : "HOODIE -MARV.001",
            "primitives" : [
                {
                    "attributes" : {
                        "POSITION" : 0,
                        "NORMAL" : 1,
                        "TEXCOORD_0" : 2
                    },
                    "indices" : 3,
                    "material" : 0
                }
            ]
        }
    ],
    "accessors" : [
        {
            "bufferView" : 0,
            "componentType" : 5126,
            "count" : 8213,
            "max" : [
                68.62742614746094,
                20.022159576416016,
                83.03961181640625
            ],
            "min" : [
                -63.948341369628906,
                -15.945876121520996,
                -79.84318542480469
            ],
            "type" : "VEC3"
        },
        {
            "bufferView" : 1,
            "componentType" : 5126,
            "count" : 8213,
            "type" : "VEC3"
        },
        {
            "bufferView" : 2,
            "componentType" : 5126,
            "count" : 8213,
            "type" : "VEC2"
        },
        {
            "bufferView" : 3,
            "componentType" : 5123,
            "count" : 41487,
            "type" : "SCALAR"
        }
    ],
    "bufferViews" : [
        {
            "buffer" : 0,
            "byteLength" : 98556,
            "byteOffset" : 0
        },
        {
            "buffer" : 0,
            "byteLength" : 98556,
            "byteOffset" : 98556
        },
        {
            "buffer" : 0,
            "byteLength" : 65704,
            "byteOffset" : 197112
        },
        {
            "buffer" : 0,
            "byteLength" : 82974,
            "byteOffset" : 262816
        }
    ],
    "buffers" : [
        {
            "byteLength" : 345792,
            "uri" : "data:application/octet-stream;base64,"
        }
    ]
}
