{
    "asset" : {
        "generator" : "Khronos glTF Blender I/O v1.7.33",
        "version" : "2.0"
    },
    "scene" : 0,
    "scenes" : [
        {
            "name" : "Scene",
            "nodes" : [
                0,
                1
            ]
        },
        {
            "name" : "Scene.001"
        }
    ],
    "nodes" : [
        {
            "mesh" : 0,
            "name" : "Cube.057",
            "rotation" : [
                0,
                0,
                0.988491952419281,
                0.15127363801002502
            ],
            "scale" : [
                0.5662049651145935,
                0.5662049651145935,
                0.5662049651145935
            ],
            "translation" : [
                -4.603273391723633,
                1.7924026250839233,
                -0.841305673122406
            ]
        },
        {
            "mesh" : 1,
            "name" : "Cube.063",
            "rotation" : [
                0,
                0,
                0.988491952419281,
                0.15127363801002502
            ],
            "scale" : [
                0.5662049651145935,
                0.5662049651145935,
                0.5662049651145935
            ],
            "translation" : [
                -4.603273391723633,
                1.7924026250839233,
                -0.841305673122406
            ]
        }
    ],
    "materials" : [
        {
            "doubleSided" : true,
            "name" : "GROUND",
            "pbrMetallicRoughness" : {
                "baseColorFactor" : [
                    0.800000011920929,
                    0.800000011920929,
                    0.800000011920929,
                    1
                ],
                "metallicFactor" : 0,
                "roughnessFactor" : 0.5
            }
        },
        {
            "doubleSided" : true,
            "name" : "PROPS",
            "pbrMetallicRoughness" : {
                "baseColorFactor" : [
                    0.800000011920929,
                    0.800000011920929,
                    0.800000011920929,
                    1
                ],
                "metallicFactor" : 0,
                "roughnessFactor" : 0.5
            }
        }
    ],
    "meshes" : [
        {
            "name" : "Cube.068",
            "primitives" : [
                {
                    "attributes" : {
                        "POSITION" : 0,
                        "NORMAL" : 1,
                        "TEXCOORD_0" : 2
                    },
                    "indices" : 3,
                    "material" : 0
                }
            ]
        },
        {
            "name" : "Cube.074",
            "primitives" : [
                {
                    "attributes" : {
                        "POSITION" : 4,
                        "NORMAL" : 5,
                        "TEXCOORD_0" : 6
                    },
                    "indices" : 7,
                    "material" : 1
                }
            ]
        }
    ],
    "accessors" : [
        {
            "bufferView" : 0,
            "componentType" : 5126,
            "count" : 144,
            "max" : [
                201.51040649414062,
                66.47272491455078,
                223.11178588867188
            ],
            "min" : [
                -220.5687255859375,
                -65.81083679199219,
                -219.2113800048828
            ],
            "type" : "VEC3"
        },
        {
            "bufferView" : 1,
            "componentType" : 5126,
            "count" : 144,
            "type" : "VEC3"
        },
        {
            "bufferView" : 2,
            "componentType" : 5126,
            "count" : 144,
            "type" : "VEC2"
        },
        {
            "bufferView" : 3,
            "componentType" : 5123,
            "count" : 726,
            "type" : "SCALAR"
        },
        {
            "bufferView" : 4,
            "componentType" : 5126,
            "count" : 10544,
            "max" : [
                6.352018356323242,
                4.299661159515381,
                16.36336326599121
            ],
            "min" : [
                -25.885709762573242,
                -12.117738723754883,
                -13.544441223144531
            ],
            "type" : "VEC3"
        },
        {
            "bufferView" : 5,
            "componentType" : 5126,
            "count" : 10544,
            "type" : "VEC3"
        },
        {
            "bufferView" : 6,
            "componentType" : 5126,
            "count" : 10544,
            "type" : "VEC2"
        },
        {
            "bufferView" : 7,
            "componentType" : 5123,
            "count" : 25512,
            "type" : "SCALAR"
        }
    ],
    "bufferViews" : [
        {
            "buffer" : 0,
            "byteLength" : 1728,
            "byteOffset" : 0
        },
        {
            "buffer" : 0,
            "byteLength" : 1728,
            "byteOffset" : 1728
        },
        {
            "buffer" : 0,
            "byteLength" : 1152,
            "byteOffset" : 3456
        },
        {
            "buffer" : 0,
            "byteLength" : 1452,
            "byteOffset" : 4608
        },
        {
            "buffer" : 0,
            "byteLength" : 126528,
            "byteOffset" : 6060
        },
        {
            "buffer" : 0,
            "byteLength" : 126528,
            "byteOffset" : 132588
        },
        {
            "buffer" : 0,
            "byteLength" : 84352,
            "byteOffset" : 259116
        },
        {
            "buffer" : 0,
            "byteLength" : 51024,
            "byteOffset" : 343468
        }
    ],
    "buffers" : [
        {
            "byteLength" : 394492,
            "uri" : "data:application/octet-stream;base64,"
        }
    ]
}
